<svg width="21" height="18" viewBox="0 0 21 18" fill="none" xmlns="http://www.w3.org/2000/svg">
<path d="M19 6.26758V1.2207C19 0.921875 18.7676 0.125 17.9375 0.125C17.6719 0.125 17.4395 0.224609 17.2734 0.390625L14.418 2.64844C13.0234 3.77734 11.2305 4.375 9.4375 4.375H3.0625C1.86719 4.375 0.9375 5.33789 0.9375 6.5V9.6875C0.9375 10.8828 1.86719 11.8125 3.0625 11.8125L3.0293 12.875C3.0293 14.2031 3.32812 15.4648 3.89258 16.5605C4.05859 16.9258 4.42383 17.125 4.82227 17.125H8.3418C9.20508 17.125 9.73633 16.1621 9.20508 15.4648C8.67383 14.7344 8.3418 13.8711 8.3418 12.875C8.3418 12.5098 8.4082 12.1777 8.47461 11.8125H9.4375C11.2305 11.8125 13.0234 12.4434 14.418 13.5723L17.2734 15.8301C17.4062 15.9629 17.7051 16.0625 17.9043 16.0625C18.7344 16.0625 18.9668 15.332 18.9668 15V9.95312C19.6309 9.58789 20.0293 8.89062 20.0293 8.12695C20.0625 7.33008 19.6309 6.63281 19 6.26758ZM5.1543 15.5312C4.78906 14.7012 4.62305 13.8047 4.62305 12.875C4.62305 12.4102 4.68945 12.0449 4.72266 11.8125H6.88086C6.78125 12.1777 6.74805 12.543 6.74805 12.875C6.74805 13.8379 6.98047 14.7344 7.37891 15.5312H5.1543ZM8.90625 10.2188H3.0625C2.76367 10.2188 2.53125 9.98633 2.53125 9.6875V6.5C2.53125 6.23438 2.76367 5.96875 3.0625 5.96875H8.90625V10.2188ZM17.4062 13.9043L15.4141 12.3438C14.0195 11.2148 12.293 10.5176 10.5 10.3184V5.90234C12.293 5.70312 14.0195 5.00586 15.4141 3.87695L17.4062 2.31641V13.9043Z" fill="white"/>
</svg>
