<svg width="21" height="18" viewBox="0 0 21 18" fill="none" xmlns="http://www.w3.org/2000/svg">
<path d="M8.70703 17.125C8.87305 17.1582 9.00586 17.0918 9.03906 16.959L13.7207 0.855469C13.7539 0.722656 13.6875 0.556641 13.5547 0.523438L12.2598 0.158203C12.127 0.125 11.9609 0.191406 11.9277 0.324219L7.24609 16.4277C7.21289 16.5605 7.2793 16.7266 7.44531 16.7598L8.70703 17.125ZM5.95117 13.1074L6.84766 12.1445C6.94727 12.0449 6.94727 11.8789 6.84766 11.7793L3.32812 8.625L6.84766 5.50391C6.94727 5.4043 6.94727 5.23828 6.84766 5.13867L5.95117 4.17578C5.85156 4.07617 5.68555 4.04297 5.58594 4.14258L1.00391 8.45898C0.904297 8.55859 0.904297 8.72461 1.00391 8.82422L5.58594 13.1074C5.68555 13.207 5.85156 13.207 5.95117 13.1074ZM15.3809 13.1074L19.9629 8.82422C20.0625 8.72461 20.0625 8.55859 19.9629 8.45898L15.3809 4.14258C15.2812 4.04297 15.1152 4.07617 15.0156 4.17578L14.1191 5.13867C14.0195 5.23828 14.0195 5.4043 14.1191 5.50391L17.6387 8.625L14.1191 11.7793C14.0195 11.8789 14.0195 12.0449 14.1191 12.1445L15.0156 13.1074C15.1152 13.207 15.2812 13.207 15.3809 13.1074Z" fill="white"/>
</svg>
