<svg width="16" height="13" viewBox="0 0 16 13" fill="none" xmlns="http://www.w3.org/2000/svg">
<path d="M13.3738 11H3.62378C3.41284 11 3.24878 11.1875 3.24878 11.375V12.125C3.24878 12.3359 3.41284 12.5 3.62378 12.5H13.3738C13.5613 12.5 13.7488 12.3359 13.7488 12.125V11.375C13.7488 11.1875 13.5613 11 13.3738 11ZM14.8738 3.5C14.241 3.5 13.7488 4.01562 13.7488 4.625C13.7488 4.8125 13.7722 4.95312 13.8425 5.09375L12.155 6.125C11.78 6.33594 11.3113 6.21875 11.1003 5.84375L9.2019 2.49219C9.45972 2.30469 9.62378 1.97656 9.62378 1.625C9.62378 1.01562 9.10815 0.5 8.49878 0.5C7.86597 0.5 7.37378 1.01562 7.37378 1.625C7.37378 1.97656 7.53784 2.30469 7.77222 2.49219L5.87378 5.84375C5.66284 6.21875 5.19409 6.33594 4.84253 6.125L3.13159 5.09375C3.2019 4.95312 3.24878 4.8125 3.24878 4.625C3.24878 4.01562 2.73315 3.5 2.12378 3.5C1.49097 3.5 0.998779 4.01562 0.998779 4.625C0.998779 5.25781 1.49097 5.75 2.12378 5.75C2.17065 5.75 2.24097 5.75 2.28784 5.75L3.99878 10.25H12.9988L14.6863 5.75C14.7332 5.75 14.8035 5.75 14.8738 5.75C15.4832 5.75 15.9988 5.25781 15.9988 4.625C15.9988 4.01562 15.4832 3.5 14.8738 3.5Z" fill="#1B2638"/>
</svg>
