<svg width="367" height="23" viewBox="0 0 367 23" fill="none" xmlns="http://www.w3.org/2000/svg">
<path d="M12.375 16H2.625C2.41406 16 2.25 16.1875 2.25 16.375V17.125C2.25 17.3359 2.41406 17.5 2.625 17.5H12.375C12.5625 17.5 12.75 17.3359 12.75 17.125V16.375C12.75 16.1875 12.5625 16 12.375 16ZM13.875 8.5C13.2422 8.5 12.75 9.01562 12.75 9.625C12.75 9.8125 12.7734 9.95312 12.8438 10.0938L11.1562 11.125C10.7812 11.3359 10.3125 11.2188 10.1016 10.8438L8.20312 7.49219C8.46094 7.30469 8.625 6.97656 8.625 6.625C8.625 6.01562 8.10938 5.5 7.5 5.5C6.86719 5.5 6.375 6.01562 6.375 6.625C6.375 6.97656 6.53906 7.30469 6.77344 7.49219L4.875 10.8438C4.66406 11.2188 4.19531 11.3359 3.84375 11.125L2.13281 10.0938C2.20312 9.95312 2.25 9.8125 2.25 9.625C2.25 9.01562 1.73438 8.5 1.125 8.5C0.492188 8.5 0 9.01562 0 9.625C0 10.2578 0.492188 10.75 1.125 10.75C1.17188 10.75 1.24219 10.75 1.28906 10.75L3 15.25H12L13.6875 10.75C13.7344 10.75 13.8047 10.75 13.875 10.75C14.4844 10.75 15 10.2578 15 9.625C15 9.01562 14.4844 8.5 13.875 8.5Z" fill="#1B2638"/>
<path d="M29.8223 16L27.3555 8.8457H27.3027C27.3145 9.00586 27.3281 9.22461 27.3438 9.50195C27.3594 9.7793 27.373 10.0762 27.3848 10.3926C27.3965 10.709 27.4023 11.0117 27.4023 11.3008V16H26.125V7.43359H28.0996L30.4727 14.2715H30.5078L32.9629 7.43359H34.9316V16H33.5898V11.2305C33.5898 10.9688 33.5938 10.6855 33.6016 10.3809C33.6133 10.0762 33.625 9.78711 33.6367 9.51367C33.6523 9.24023 33.6641 9.02148 33.6719 8.85742H33.625L31.0645 16H29.8223ZM36.0684 9.51367H37.5684L38.8984 13.2168C38.957 13.3848 39.0098 13.5508 39.0566 13.7148C39.1074 13.875 39.1504 14.0332 39.1855 14.1895C39.2246 14.3457 39.2559 14.502 39.2793 14.6582H39.3145C39.3535 14.4551 39.4082 14.2285 39.4785 13.9785C39.5527 13.7246 39.6348 13.4707 39.7246 13.2168L41.002 9.51367H42.4844L39.7012 16.8906C39.541 17.3125 39.3438 17.6719 39.1094 17.9688C38.8789 18.2695 38.6055 18.4961 38.2891 18.6484C37.9727 18.8047 37.6113 18.8828 37.2051 18.8828C37.0098 18.8828 36.8398 18.8711 36.6953 18.8477C36.5508 18.8281 36.4277 18.8066 36.3262 18.7832V17.6816C36.4082 17.7012 36.5117 17.7188 36.6367 17.7344C36.7617 17.75 36.8906 17.7578 37.0234 17.7578C37.2695 17.7578 37.4824 17.709 37.6621 17.6113C37.8418 17.5137 37.9941 17.375 38.1191 17.1953C38.2441 17.0195 38.3477 16.8184 38.4297 16.5918L38.6582 15.9824L36.0684 9.51367ZM49.873 9.39062C49.9824 9.39062 50.1016 9.39648 50.2305 9.4082C50.3594 9.41992 50.4707 9.43555 50.5645 9.45508L50.4355 10.7441C50.3535 10.7207 50.252 10.7031 50.1309 10.6914C50.0137 10.6797 49.9082 10.6738 49.8145 10.6738C49.5684 10.6738 49.334 10.7148 49.1113 10.7969C48.8887 10.875 48.6914 10.9961 48.5195 11.1602C48.3477 11.3203 48.2129 11.5215 48.1152 11.7637C48.0176 12.0059 47.9688 12.2871 47.9688 12.6074V16H46.5859V9.51367H47.6641L47.8516 10.6562H47.916C48.0449 10.4258 48.2051 10.2148 48.3965 10.0234C48.5879 9.83203 48.8066 9.67969 49.0527 9.56641C49.3027 9.44922 49.5762 9.39062 49.873 9.39062ZM54.3496 9.39062C54.9277 9.39062 55.4238 9.50977 55.8379 9.74805C56.252 9.98633 56.5703 10.3242 56.793 10.7617C57.0156 11.1992 57.127 11.7227 57.127 12.332V13.0703H52.7969C52.8125 13.6992 52.9805 14.1836 53.3008 14.5234C53.625 14.8633 54.0781 15.0332 54.6602 15.0332C55.0742 15.0332 55.4453 14.9941 55.7734 14.916C56.1055 14.834 56.4473 14.7148 56.7988 14.5586V15.6777C56.4746 15.8301 56.1445 15.9414 55.8086 16.0117C55.4727 16.082 55.0703 16.1172 54.6016 16.1172C53.9648 16.1172 53.4043 15.9941 52.9199 15.748C52.4395 15.498 52.0625 15.127 51.7891 14.6348C51.5195 14.1426 51.3848 13.5312 51.3848 12.8008C51.3848 12.0742 51.5078 11.457 51.7539 10.9492C52 10.4414 52.3457 10.0547 52.791 9.78906C53.2363 9.52344 53.7559 9.39062 54.3496 9.39062ZM54.3496 10.4277C53.916 10.4277 53.5645 10.5684 53.2949 10.8496C53.0293 11.1309 52.873 11.543 52.8262 12.0859H55.7793C55.7754 11.7617 55.7207 11.4746 55.6152 11.2246C55.5137 10.9746 55.3574 10.7793 55.1465 10.6387C54.9395 10.498 54.6738 10.4277 54.3496 10.4277ZM63.0391 14.1484C63.0391 14.5742 62.9355 14.9336 62.7285 15.2266C62.5215 15.5195 62.2188 15.7422 61.8203 15.8945C61.4258 16.043 60.9414 16.1172 60.3672 16.1172C59.9141 16.1172 59.5234 16.084 59.1953 16.0176C58.8711 15.9551 58.5645 15.8574 58.2754 15.7246V14.5352C58.584 14.6797 58.9297 14.8047 59.3125 14.9102C59.6992 15.0156 60.0645 15.0684 60.4082 15.0684C60.8613 15.0684 61.1875 14.998 61.3867 14.8574C61.5859 14.7129 61.6855 14.5215 61.6855 14.2832C61.6855 14.1426 61.6445 14.0176 61.5625 13.9082C61.4844 13.7949 61.3359 13.6797 61.1172 13.5625C60.9023 13.4414 60.5859 13.2969 60.168 13.1289C59.7578 12.9648 59.4121 12.8008 59.1309 12.6367C58.8496 12.4727 58.6367 12.2754 58.4922 12.0449C58.3477 11.8105 58.2754 11.5117 58.2754 11.1484C58.2754 10.5742 58.502 10.1387 58.9551 9.8418C59.4121 9.54102 60.0156 9.39062 60.7656 9.39062C61.1641 9.39062 61.5391 9.43164 61.8906 9.51367C62.2461 9.5918 62.5938 9.70703 62.9336 9.85938L62.5 10.8965C62.207 10.7676 61.9121 10.6621 61.6152 10.5801C61.3223 10.4941 61.0234 10.4512 60.7188 10.4512C60.3633 10.4512 60.0918 10.5059 59.9043 10.6152C59.7207 10.7246 59.6289 10.8809 59.6289 11.084C59.6289 11.2363 59.6738 11.3652 59.7637 11.4707C59.8535 11.5762 60.0078 11.6816 60.2266 11.7871C60.4492 11.8926 60.7578 12.0234 61.1523 12.1797C61.5391 12.3281 61.873 12.4844 62.1543 12.6484C62.4395 12.8086 62.6582 13.0059 62.8105 13.2402C62.9629 13.4746 63.0391 13.7773 63.0391 14.1484ZM67.8555 9.39062C68.625 9.39062 69.2422 9.67188 69.707 10.2344C70.1758 10.7969 70.4102 11.6328 70.4102 12.7422C70.4102 13.4766 70.3008 14.0957 70.082 14.5996C69.8672 15.0996 69.5645 15.4785 69.1738 15.7363C68.7871 15.9902 68.3359 16.1172 67.8203 16.1172C67.4922 16.1172 67.207 16.0742 66.9648 15.9883C66.7227 15.9023 66.5156 15.791 66.3438 15.6543C66.1719 15.5137 66.0273 15.3613 65.9102 15.1973H65.8281C65.8477 15.3535 65.8652 15.5273 65.8809 15.7188C65.9004 15.9062 65.9102 16.0781 65.9102 16.2344V18.877H64.5273V9.51367H65.6523L65.8457 10.4102H65.9102C66.0312 10.2266 66.1777 10.0566 66.3496 9.90039C66.5254 9.74414 66.7363 9.62109 66.9824 9.53125C67.2324 9.4375 67.5234 9.39062 67.8555 9.39062ZM67.4863 10.5156C67.1074 10.5156 66.8027 10.5918 66.5723 10.7441C66.3457 10.8926 66.1797 11.1172 66.0742 11.418C65.9727 11.7188 65.918 12.0957 65.9102 12.5488V12.7422C65.9102 13.2227 65.959 13.6309 66.0566 13.9668C66.1582 14.2988 66.3242 14.5527 66.5547 14.7285C66.7891 14.9004 67.1055 14.9863 67.5039 14.9863C67.8398 14.9863 68.1172 14.8945 68.3359 14.7109C68.5586 14.5273 68.7246 14.2656 68.834 13.9258C68.9434 13.5859 68.998 13.1855 68.998 12.7246C68.998 12.0254 68.873 11.4824 68.623 11.0957C68.377 10.709 67.998 10.5156 67.4863 10.5156ZM77.7461 12.7422C77.7461 13.2812 77.6758 13.7598 77.5352 14.1777C77.3945 14.5957 77.1895 14.9492 76.9199 15.2383C76.6504 15.5234 76.3262 15.7422 75.9473 15.8945C75.5684 16.043 75.1406 16.1172 74.6641 16.1172C74.2188 16.1172 73.8105 16.043 73.4395 15.8945C73.0684 15.7422 72.7461 15.5234 72.4727 15.2383C72.2031 14.9492 71.9941 14.5957 71.8457 14.1777C71.6973 13.7598 71.623 13.2812 71.623 12.7422C71.623 12.0273 71.7461 11.4219 71.9922 10.9258C72.2422 10.4258 72.5977 10.0449 73.0586 9.7832C73.5195 9.52148 74.0684 9.39062 74.7051 9.39062C75.3027 9.39062 75.8301 9.52148 76.2871 9.7832C76.7441 10.0449 77.1016 10.4258 77.3594 10.9258C77.6172 11.4258 77.7461 12.0312 77.7461 12.7422ZM73.041 12.7422C73.041 13.2148 73.0977 13.6191 73.2109 13.9551C73.3281 14.291 73.5078 14.5488 73.75 14.7285C73.9922 14.9043 74.3047 14.9922 74.6875 14.9922C75.0703 14.9922 75.3828 14.9043 75.625 14.7285C75.8672 14.5488 76.0449 14.291 76.1582 13.9551C76.2715 13.6191 76.3281 13.2148 76.3281 12.7422C76.3281 12.2695 76.2715 11.8691 76.1582 11.541C76.0449 11.209 75.8672 10.957 75.625 10.7852C75.3828 10.6094 75.0684 10.5215 74.6816 10.5215C74.1113 10.5215 73.6953 10.7129 73.4336 11.0957C73.1719 11.4785 73.041 12.0273 73.041 12.7422ZM82.709 9.39062C83.4395 9.39062 84.0078 9.58008 84.4141 9.95898C84.8242 10.334 85.0293 10.9375 85.0293 11.7695V16H83.6523V12.0273C83.6523 11.5234 83.5488 11.1465 83.3418 10.8965C83.1348 10.6426 82.8145 10.5156 82.3809 10.5156C81.752 10.5156 81.3145 10.709 81.0684 11.0957C80.8262 11.4824 80.7051 12.043 80.7051 12.7773V16H79.3281V9.51367H80.4004L80.5938 10.3926H80.6699C80.8105 10.166 80.9844 9.98047 81.1914 9.83594C81.4023 9.6875 81.6367 9.57617 81.8945 9.50195C82.1562 9.42773 82.4277 9.39062 82.709 9.39062ZM91.3164 14.1484C91.3164 14.5742 91.2129 14.9336 91.0059 15.2266C90.7988 15.5195 90.4961 15.7422 90.0977 15.8945C89.7031 16.043 89.2188 16.1172 88.6445 16.1172C88.1914 16.1172 87.8008 16.084 87.4727 16.0176C87.1484 15.9551 86.8418 15.8574 86.5527 15.7246V14.5352C86.8613 14.6797 87.207 14.8047 87.5898 14.9102C87.9766 15.0156 88.3418 15.0684 88.6855 15.0684C89.1387 15.0684 89.4648 14.998 89.6641 14.8574C89.8633 14.7129 89.9629 14.5215 89.9629 14.2832C89.9629 14.1426 89.9219 14.0176 89.8398 13.9082C89.7617 13.7949 89.6133 13.6797 89.3945 13.5625C89.1797 13.4414 88.8633 13.2969 88.4453 13.1289C88.0352 12.9648 87.6895 12.8008 87.4082 12.6367C87.127 12.4727 86.9141 12.2754 86.7695 12.0449C86.625 11.8105 86.5527 11.5117 86.5527 11.1484C86.5527 10.5742 86.7793 10.1387 87.2324 9.8418C87.6895 9.54102 88.293 9.39062 89.043 9.39062C89.4414 9.39062 89.8164 9.43164 90.168 9.51367C90.5234 9.5918 90.8711 9.70703 91.2109 9.85938L90.7773 10.8965C90.4844 10.7676 90.1895 10.6621 89.8926 10.5801C89.5996 10.4941 89.3008 10.4512 88.9961 10.4512C88.6406 10.4512 88.3691 10.5059 88.1816 10.6152C87.998 10.7246 87.9062 10.8809 87.9062 11.084C87.9062 11.2363 87.9512 11.3652 88.041 11.4707C88.1309 11.5762 88.2852 11.6816 88.5039 11.7871C88.7266 11.8926 89.0352 12.0234 89.4297 12.1797C89.8164 12.3281 90.1504 12.4844 90.4316 12.6484C90.7168 12.8086 90.9355 13.0059 91.0879 13.2402C91.2402 13.4746 91.3164 13.7773 91.3164 14.1484ZM94.1816 9.51367V16H92.8047V9.51367H94.1816ZM93.502 7.0293C93.7129 7.0293 93.8945 7.08594 94.0469 7.19922C94.2031 7.3125 94.2812 7.50781 94.2812 7.78516C94.2812 8.05859 94.2031 8.25391 94.0469 8.37109C93.8945 8.48438 93.7129 8.54102 93.502 8.54102C93.2832 8.54102 93.0977 8.48438 92.9453 8.37109C92.7969 8.25391 92.7227 8.05859 92.7227 7.78516C92.7227 7.50781 92.7969 7.3125 92.9453 7.19922C93.0977 7.08594 93.2832 7.0293 93.502 7.0293ZM97.5332 6.88281V9.08008C97.5332 9.33398 97.5254 9.58398 97.5098 9.83008C97.498 10.0723 97.4863 10.2617 97.4746 10.3984H97.5332C97.709 10.1172 97.9531 9.88086 98.2656 9.68945C98.582 9.49414 98.9863 9.39648 99.4785 9.39648C100.248 9.39648 100.867 9.67969 101.336 10.2461C101.805 10.8086 102.039 11.6426 102.039 12.748C102.039 13.4824 101.932 14.0996 101.717 14.5996C101.502 15.0996 101.199 15.4785 100.809 15.7363C100.422 15.9902 99.9668 16.1172 99.4434 16.1172C98.9512 16.1172 98.5527 16.0273 98.248 15.8477C97.9473 15.6641 97.7109 15.4512 97.5391 15.209H97.4395L97.1875 16H96.1562V6.88281H97.5332ZM99.1152 10.5156C98.7246 10.5156 98.4141 10.5938 98.1836 10.75C97.957 10.9062 97.793 11.1406 97.6914 11.4531C97.5898 11.7617 97.5371 12.1543 97.5332 12.6309V12.7539C97.5332 13.4766 97.6465 14.0293 97.873 14.4121C98.1035 14.7949 98.5215 14.9863 99.127 14.9863C99.6074 14.9863 99.9766 14.793 100.234 14.4062C100.492 14.0156 100.621 13.457 100.621 12.7305C100.621 11.9961 100.492 11.4434 100.234 11.0723C99.9805 10.7012 99.6074 10.5156 99.1152 10.5156ZM105.01 9.51367V16H103.633V9.51367H105.01ZM104.33 7.0293C104.541 7.0293 104.723 7.08594 104.875 7.19922C105.031 7.3125 105.109 7.50781 105.109 7.78516C105.109 8.05859 105.031 8.25391 104.875 8.37109C104.723 8.48438 104.541 8.54102 104.33 8.54102C104.111 8.54102 103.926 8.48438 103.773 8.37109C103.625 8.25391 103.551 8.05859 103.551 7.78516C103.551 7.50781 103.625 7.3125 103.773 7.19922C103.926 7.08594 104.111 7.0293 104.33 7.0293ZM108.367 16H106.984V6.88281H108.367V16ZM111.713 9.51367V16H110.336V9.51367H111.713ZM111.033 7.0293C111.244 7.0293 111.426 7.08594 111.578 7.19922C111.734 7.3125 111.812 7.50781 111.812 7.78516C111.812 8.05859 111.734 8.25391 111.578 8.37109C111.426 8.48438 111.244 8.54102 111.033 8.54102C110.814 8.54102 110.629 8.48438 110.477 8.37109C110.328 8.25391 110.254 8.05859 110.254 7.78516C110.254 7.50781 110.328 7.3125 110.477 7.19922C110.629 7.08594 110.814 7.0293 111.033 7.0293ZM116.102 15.0039C116.281 15.0039 116.459 14.9883 116.635 14.957C116.811 14.9219 116.971 14.8809 117.115 14.834V15.877C116.963 15.9434 116.766 16 116.523 16.0469C116.281 16.0938 116.029 16.1172 115.768 16.1172C115.4 16.1172 115.07 16.0566 114.777 15.9355C114.484 15.8105 114.252 15.5977 114.08 15.2969C113.908 14.9961 113.822 14.5801 113.822 14.0488V10.5625H112.938V9.94727L113.887 9.46094L114.338 8.07227H115.205V9.51367H117.062V10.5625H115.205V14.0312C115.205 14.3594 115.287 14.6035 115.451 14.7637C115.615 14.9238 115.832 15.0039 116.102 15.0039ZM119.811 9.51367V16H118.434V9.51367H119.811ZM119.131 7.0293C119.342 7.0293 119.523 7.08594 119.676 7.19922C119.832 7.3125 119.91 7.50781 119.91 7.78516C119.91 8.05859 119.832 8.25391 119.676 8.37109C119.523 8.48438 119.342 8.54102 119.131 8.54102C118.912 8.54102 118.727 8.48438 118.574 8.37109C118.426 8.25391 118.352 8.05859 118.352 7.78516C118.352 7.50781 118.426 7.3125 118.574 7.19922C118.727 7.08594 118.912 7.0293 119.131 7.0293ZM124.369 9.39062C124.947 9.39062 125.443 9.50977 125.857 9.74805C126.271 9.98633 126.59 10.3242 126.812 10.7617C127.035 11.1992 127.146 11.7227 127.146 12.332V13.0703H122.816C122.832 13.6992 123 14.1836 123.32 14.5234C123.645 14.8633 124.098 15.0332 124.68 15.0332C125.094 15.0332 125.465 14.9941 125.793 14.916C126.125 14.834 126.467 14.7148 126.818 14.5586V15.6777C126.494 15.8301 126.164 15.9414 125.828 16.0117C125.492 16.082 125.09 16.1172 124.621 16.1172C123.984 16.1172 123.424 15.9941 122.939 15.748C122.459 15.498 122.082 15.127 121.809 14.6348C121.539 14.1426 121.404 13.5312 121.404 12.8008C121.404 12.0742 121.527 11.457 121.773 10.9492C122.02 10.4414 122.365 10.0547 122.811 9.78906C123.256 9.52344 123.775 9.39062 124.369 9.39062ZM124.369 10.4277C123.936 10.4277 123.584 10.5684 123.314 10.8496C123.049 11.1309 122.893 11.543 122.846 12.0859H125.799C125.795 11.7617 125.74 11.4746 125.635 11.2246C125.533 10.9746 125.377 10.7793 125.166 10.6387C124.959 10.498 124.693 10.4277 124.369 10.4277ZM133.059 14.1484C133.059 14.5742 132.955 14.9336 132.748 15.2266C132.541 15.5195 132.238 15.7422 131.84 15.8945C131.445 16.043 130.961 16.1172 130.387 16.1172C129.934 16.1172 129.543 16.084 129.215 16.0176C128.891 15.9551 128.584 15.8574 128.295 15.7246V14.5352C128.604 14.6797 128.949 14.8047 129.332 14.9102C129.719 15.0156 130.084 15.0684 130.428 15.0684C130.881 15.0684 131.207 14.998 131.406 14.8574C131.605 14.7129 131.705 14.5215 131.705 14.2832C131.705 14.1426 131.664 14.0176 131.582 13.9082C131.504 13.7949 131.355 13.6797 131.137 13.5625C130.922 13.4414 130.605 13.2969 130.188 13.1289C129.777 12.9648 129.432 12.8008 129.15 12.6367C128.869 12.4727 128.656 12.2754 128.512 12.0449C128.367 11.8105 128.295 11.5117 128.295 11.1484C128.295 10.5742 128.521 10.1387 128.975 9.8418C129.432 9.54102 130.035 9.39062 130.785 9.39062C131.184 9.39062 131.559 9.43164 131.91 9.51367C132.266 9.5918 132.613 9.70703 132.953 9.85938L132.52 10.8965C132.227 10.7676 131.932 10.6621 131.635 10.5801C131.342 10.4941 131.043 10.4512 130.738 10.4512C130.383 10.4512 130.111 10.5059 129.924 10.6152C129.74 10.7246 129.648 10.8809 129.648 11.084C129.648 11.2363 129.693 11.3652 129.783 11.4707C129.873 11.5762 130.027 11.6816 130.246 11.7871C130.469 11.8926 130.777 12.0234 131.172 12.1797C131.559 12.3281 131.893 12.4844 132.174 12.6484C132.459 12.8086 132.678 13.0059 132.83 13.2402C132.982 13.4746 133.059 13.7773 133.059 14.1484ZM140.207 9.39062C141.027 9.39062 141.646 9.57227 142.064 9.93555C142.486 10.2988 142.697 10.8652 142.697 11.6348V16H141.719L141.455 15.0801H141.408C141.225 15.3145 141.035 15.5078 140.84 15.6602C140.645 15.8125 140.418 15.9258 140.16 16C139.906 16.0781 139.596 16.1172 139.229 16.1172C138.842 16.1172 138.496 16.0469 138.191 15.9062C137.887 15.7617 137.646 15.543 137.471 15.25C137.295 14.957 137.207 14.5859 137.207 14.1367C137.207 13.4688 137.455 12.9668 137.951 12.6309C138.451 12.2949 139.205 12.1094 140.213 12.0742L141.338 12.0332V11.6934C141.338 11.2441 141.232 10.9238 141.021 10.7324C140.814 10.541 140.521 10.4453 140.143 10.4453C139.818 10.4453 139.504 10.4922 139.199 10.5859C138.895 10.6797 138.598 10.7949 138.309 10.9316L137.863 9.95898C138.18 9.79102 138.539 9.6543 138.941 9.54883C139.348 9.44336 139.77 9.39062 140.207 9.39062ZM141.332 12.9004L140.494 12.9297C139.807 12.9531 139.324 13.0703 139.047 13.2812C138.77 13.4922 138.631 13.7812 138.631 14.1484C138.631 14.4688 138.727 14.7031 138.918 14.8516C139.109 14.9961 139.361 15.0684 139.674 15.0684C140.15 15.0684 140.545 14.9336 140.857 14.6641C141.174 14.3906 141.332 13.9902 141.332 13.4629V12.9004ZM147.912 9.39062C148.021 9.39062 148.141 9.39648 148.27 9.4082C148.398 9.41992 148.51 9.43555 148.604 9.45508L148.475 10.7441C148.393 10.7207 148.291 10.7031 148.17 10.6914C148.053 10.6797 147.947 10.6738 147.854 10.6738C147.607 10.6738 147.373 10.7148 147.15 10.7969C146.928 10.875 146.73 10.9961 146.559 11.1602C146.387 11.3203 146.252 11.5215 146.154 11.7637C146.057 12.0059 146.008 12.2871 146.008 12.6074V16H144.625V9.51367H145.703L145.891 10.6562H145.955C146.084 10.4258 146.244 10.2148 146.436 10.0234C146.627 9.83203 146.846 9.67969 147.092 9.56641C147.342 9.44922 147.615 9.39062 147.912 9.39062ZM152.389 9.39062C152.967 9.39062 153.463 9.50977 153.877 9.74805C154.291 9.98633 154.609 10.3242 154.832 10.7617C155.055 11.1992 155.166 11.7227 155.166 12.332V13.0703H150.836C150.852 13.6992 151.02 14.1836 151.34 14.5234C151.664 14.8633 152.117 15.0332 152.699 15.0332C153.113 15.0332 153.484 14.9941 153.812 14.916C154.145 14.834 154.486 14.7148 154.838 14.5586V15.6777C154.514 15.8301 154.184 15.9414 153.848 16.0117C153.512 16.082 153.109 16.1172 152.641 16.1172C152.004 16.1172 151.443 15.9941 150.959 15.748C150.479 15.498 150.102 15.127 149.828 14.6348C149.559 14.1426 149.424 13.5312 149.424 12.8008C149.424 12.0742 149.547 11.457 149.793 10.9492C150.039 10.4414 150.385 10.0547 150.83 9.78906C151.275 9.52344 151.795 9.39062 152.389 9.39062ZM152.389 10.4277C151.955 10.4277 151.604 10.5684 151.334 10.8496C151.068 11.1309 150.912 11.543 150.865 12.0859H153.818C153.814 11.7617 153.76 11.4746 153.654 11.2246C153.553 10.9746 153.396 10.7793 153.186 10.6387C152.979 10.498 152.713 10.4277 152.389 10.4277ZM161.213 6.88281V9.17383C161.213 9.41211 161.205 9.64453 161.189 9.87109C161.178 10.0977 161.164 10.2734 161.148 10.3984H161.225C161.361 10.1719 161.529 9.98633 161.729 9.8418C161.928 9.69336 162.15 9.58203 162.396 9.50781C162.646 9.43359 162.912 9.39648 163.193 9.39648C163.689 9.39648 164.111 9.48047 164.459 9.64844C164.807 9.8125 165.072 10.0684 165.256 10.416C165.443 10.7637 165.537 11.2148 165.537 11.7695V16H164.16V12.0273C164.16 11.5234 164.057 11.1465 163.85 10.8965C163.643 10.6426 163.322 10.5156 162.889 10.5156C162.471 10.5156 162.139 10.6035 161.893 10.7793C161.65 10.9512 161.477 11.207 161.371 11.5469C161.266 11.8828 161.213 12.293 161.213 12.7773V16H159.836V6.88281H161.213ZM170.008 9.39062C170.828 9.39062 171.447 9.57227 171.865 9.93555C172.287 10.2988 172.498 10.8652 172.498 11.6348V16H171.52L171.256 15.0801H171.209C171.025 15.3145 170.836 15.5078 170.641 15.6602C170.445 15.8125 170.219 15.9258 169.961 16C169.707 16.0781 169.396 16.1172 169.029 16.1172C168.643 16.1172 168.297 16.0469 167.992 15.9062C167.688 15.7617 167.447 15.543 167.271 15.25C167.096 14.957 167.008 14.5859 167.008 14.1367C167.008 13.4688 167.256 12.9668 167.752 12.6309C168.252 12.2949 169.006 12.1094 170.014 12.0742L171.139 12.0332V11.6934C171.139 11.2441 171.033 10.9238 170.822 10.7324C170.615 10.541 170.322 10.4453 169.943 10.4453C169.619 10.4453 169.305 10.4922 169 10.5859C168.695 10.6797 168.398 10.7949 168.109 10.9316L167.664 9.95898C167.98 9.79102 168.34 9.6543 168.742 9.54883C169.148 9.44336 169.57 9.39062 170.008 9.39062ZM171.133 12.9004L170.295 12.9297C169.607 12.9531 169.125 13.0703 168.848 13.2812C168.57 13.4922 168.432 13.7812 168.432 14.1484C168.432 14.4688 168.527 14.7031 168.719 14.8516C168.91 14.9961 169.162 15.0684 169.475 15.0684C169.951 15.0684 170.346 14.9336 170.658 14.6641C170.975 14.3906 171.133 13.9902 171.133 13.4629V12.9004ZM177.807 9.39062C178.537 9.39062 179.105 9.58008 179.512 9.95898C179.922 10.334 180.127 10.9375 180.127 11.7695V16H178.75V12.0273C178.75 11.5234 178.646 11.1465 178.439 10.8965C178.232 10.6426 177.912 10.5156 177.479 10.5156C176.85 10.5156 176.412 10.709 176.166 11.0957C175.924 11.4824 175.803 12.043 175.803 12.7773V16H174.426V9.51367H175.498L175.691 10.3926H175.768C175.908 10.166 176.082 9.98047 176.289 9.83594C176.5 9.6875 176.734 9.57617 176.992 9.50195C177.254 9.42773 177.525 9.39062 177.807 9.39062ZM184.234 16.1172C183.461 16.1172 182.84 15.8359 182.371 15.2734C181.906 14.707 181.674 13.873 181.674 12.7715C181.674 11.6582 181.91 10.8164 182.383 10.2461C182.859 9.67578 183.486 9.39062 184.264 9.39062C184.592 9.39062 184.879 9.43555 185.125 9.52539C185.371 9.61133 185.582 9.72852 185.758 9.87695C185.938 10.0254 186.09 10.1914 186.215 10.375H186.279C186.26 10.2539 186.236 10.0801 186.209 9.85352C186.186 9.62305 186.174 9.41016 186.174 9.21484V6.88281H187.557V16H186.479L186.232 15.1152H186.174C186.057 15.3027 185.908 15.4727 185.729 15.625C185.553 15.7734 185.342 15.8926 185.096 15.9824C184.854 16.0723 184.566 16.1172 184.234 16.1172ZM184.621 14.998C185.211 14.998 185.627 14.8281 185.869 14.4883C186.111 14.1484 186.236 13.6387 186.244 12.959V12.7773C186.244 12.0508 186.127 11.4941 185.893 11.1074C185.658 10.7168 185.23 10.5215 184.609 10.5215C184.113 10.5215 183.734 10.7227 183.473 11.125C183.215 11.5234 183.086 12.0801 183.086 12.7949C183.086 13.5098 183.215 14.0566 183.473 14.4355C183.734 14.8105 184.117 14.998 184.621 14.998ZM188.969 13.3633V12.1973H191.992V13.3633H188.969ZM196.727 9.39062C197.496 9.39062 198.113 9.67188 198.578 10.2344C199.047 10.7969 199.281 11.6328 199.281 12.7422C199.281 13.4766 199.172 14.0957 198.953 14.5996C198.738 15.0996 198.436 15.4785 198.045 15.7363C197.658 15.9902 197.207 16.1172 196.691 16.1172C196.363 16.1172 196.078 16.0742 195.836 15.9883C195.594 15.9023 195.387 15.791 195.215 15.6543C195.043 15.5137 194.898 15.3613 194.781 15.1973H194.699C194.719 15.3535 194.736 15.5273 194.752 15.7188C194.771 15.9062 194.781 16.0781 194.781 16.2344V18.877H193.398V9.51367H194.523L194.717 10.4102H194.781C194.902 10.2266 195.049 10.0566 195.221 9.90039C195.396 9.74414 195.607 9.62109 195.854 9.53125C196.104 9.4375 196.395 9.39062 196.727 9.39062ZM196.357 10.5156C195.979 10.5156 195.674 10.5918 195.443 10.7441C195.217 10.8926 195.051 11.1172 194.945 11.418C194.844 11.7188 194.789 12.0957 194.781 12.5488V12.7422C194.781 13.2227 194.83 13.6309 194.928 13.9668C195.029 14.2988 195.195 14.5527 195.426 14.7285C195.66 14.9004 195.977 14.9863 196.375 14.9863C196.711 14.9863 196.988 14.8945 197.207 14.7109C197.43 14.5273 197.596 14.2656 197.705 13.9258C197.814 13.5859 197.869 13.1855 197.869 12.7246C197.869 12.0254 197.744 11.4824 197.494 11.0957C197.248 10.709 196.869 10.5156 196.357 10.5156ZM202.252 9.51367V16H200.875V9.51367H202.252ZM201.572 7.0293C201.783 7.0293 201.965 7.08594 202.117 7.19922C202.273 7.3125 202.352 7.50781 202.352 7.78516C202.352 8.05859 202.273 8.25391 202.117 8.37109C201.965 8.48438 201.783 8.54102 201.572 8.54102C201.354 8.54102 201.168 8.48438 201.016 8.37109C200.867 8.25391 200.793 8.05859 200.793 7.78516C200.793 7.50781 200.867 7.3125 201.016 7.19922C201.168 7.08594 201.354 7.0293 201.572 7.0293ZM206.84 16.1172C206.227 16.1172 205.695 15.998 205.246 15.7598C204.797 15.5215 204.451 15.1562 204.209 14.6641C203.967 14.1719 203.846 13.5469 203.846 12.7891C203.846 12 203.979 11.3555 204.244 10.8555C204.51 10.3555 204.877 9.98633 205.346 9.74805C205.818 9.50977 206.359 9.39062 206.969 9.39062C207.355 9.39062 207.705 9.42969 208.018 9.50781C208.334 9.58203 208.602 9.67383 208.82 9.7832L208.41 10.8848C208.172 10.7871 207.928 10.7051 207.678 10.6387C207.428 10.5723 207.188 10.5391 206.957 10.5391C206.578 10.5391 206.262 10.623 206.008 10.791C205.758 10.959 205.57 11.209 205.445 11.541C205.324 11.873 205.264 12.2852 205.264 12.7773C205.264 13.2539 205.326 13.6562 205.451 13.9844C205.576 14.3086 205.762 14.5547 206.008 14.7227C206.254 14.8867 206.557 14.9688 206.916 14.9688C207.271 14.9688 207.59 14.9258 207.871 14.8398C208.152 14.7539 208.418 14.6426 208.668 14.5059V15.7012C208.422 15.8418 208.158 15.9453 207.877 16.0117C207.596 16.082 207.25 16.1172 206.84 16.1172ZM211.568 6.88281V11.2891C211.568 11.4883 211.561 11.707 211.545 11.9453C211.529 12.1797 211.514 12.4004 211.498 12.6074H211.527C211.629 12.4707 211.75 12.3105 211.891 12.127C212.035 11.9434 212.172 11.7832 212.301 11.6465L214.281 9.51367H215.863L213.268 12.3027L216.033 16H214.416L212.342 13.1523L211.568 13.8145V16H210.191V6.88281H211.568ZM219.654 9.39062C220.232 9.39062 220.729 9.50977 221.143 9.74805C221.557 9.98633 221.875 10.3242 222.098 10.7617C222.32 11.1992 222.432 11.7227 222.432 12.332V13.0703H218.102C218.117 13.6992 218.285 14.1836 218.605 14.5234C218.93 14.8633 219.383 15.0332 219.965 15.0332C220.379 15.0332 220.75 14.9941 221.078 14.916C221.41 14.834 221.752 14.7148 222.104 14.5586V15.6777C221.779 15.8301 221.449 15.9414 221.113 16.0117C220.777 16.082 220.375 16.1172 219.906 16.1172C219.27 16.1172 218.709 15.9941 218.225 15.748C217.744 15.498 217.367 15.127 217.094 14.6348C216.824 14.1426 216.689 13.5312 216.689 12.8008C216.689 12.0742 216.812 11.457 217.059 10.9492C217.305 10.4414 217.65 10.0547 218.096 9.78906C218.541 9.52344 219.061 9.39062 219.654 9.39062ZM219.654 10.4277C219.221 10.4277 218.869 10.5684 218.6 10.8496C218.334 11.1309 218.178 11.543 218.131 12.0859H221.084C221.08 11.7617 221.025 11.4746 220.92 11.2246C220.818 10.9746 220.662 10.7793 220.451 10.6387C220.244 10.498 219.979 10.4277 219.654 10.4277ZM226.164 16.1172C225.391 16.1172 224.77 15.8359 224.301 15.2734C223.836 14.707 223.604 13.873 223.604 12.7715C223.604 11.6582 223.84 10.8164 224.312 10.2461C224.789 9.67578 225.416 9.39062 226.193 9.39062C226.521 9.39062 226.809 9.43555 227.055 9.52539C227.301 9.61133 227.512 9.72852 227.688 9.87695C227.867 10.0254 228.02 10.1914 228.145 10.375H228.209C228.189 10.2539 228.166 10.0801 228.139 9.85352C228.115 9.62305 228.104 9.41016 228.104 9.21484V6.88281H229.486V16H228.408L228.162 15.1152H228.104C227.986 15.3027 227.838 15.4727 227.658 15.625C227.482 15.7734 227.271 15.8926 227.025 15.9824C226.783 16.0723 226.496 16.1172 226.164 16.1172ZM226.551 14.998C227.141 14.998 227.557 14.8281 227.799 14.4883C228.041 14.1484 228.166 13.6387 228.174 12.959V12.7773C228.174 12.0508 228.057 11.4941 227.822 11.1074C227.588 10.7168 227.16 10.5215 226.539 10.5215C226.043 10.5215 225.664 10.7227 225.402 11.125C225.145 11.5234 225.016 12.0801 225.016 12.7949C225.016 13.5098 225.145 14.0566 225.402 14.4355C225.664 14.8105 226.047 14.998 226.551 14.998ZM237.121 9.39062C237.941 9.39062 238.561 9.57227 238.979 9.93555C239.4 10.2988 239.611 10.8652 239.611 11.6348V16H238.633L238.369 15.0801H238.322C238.139 15.3145 237.949 15.5078 237.754 15.6602C237.559 15.8125 237.332 15.9258 237.074 16C236.82 16.0781 236.51 16.1172 236.143 16.1172C235.756 16.1172 235.41 16.0469 235.105 15.9062C234.801 15.7617 234.561 15.543 234.385 15.25C234.209 14.957 234.121 14.5859 234.121 14.1367C234.121 13.4688 234.369 12.9668 234.865 12.6309C235.365 12.2949 236.119 12.1094 237.127 12.0742L238.252 12.0332V11.6934C238.252 11.2441 238.146 10.9238 237.936 10.7324C237.729 10.541 237.436 10.4453 237.057 10.4453C236.732 10.4453 236.418 10.4922 236.113 10.5859C235.809 10.6797 235.512 10.7949 235.223 10.9316L234.777 9.95898C235.094 9.79102 235.453 9.6543 235.855 9.54883C236.262 9.44336 236.684 9.39062 237.121 9.39062ZM238.246 12.9004L237.408 12.9297C236.721 12.9531 236.238 13.0703 235.961 13.2812C235.684 13.4922 235.545 13.7812 235.545 14.1484C235.545 14.4688 235.641 14.7031 235.832 14.8516C236.023 14.9961 236.275 15.0684 236.588 15.0684C237.064 15.0684 237.459 14.9336 237.771 14.6641C238.088 14.3906 238.246 13.9902 238.246 13.4629V12.9004ZM244.92 9.39062C245.65 9.39062 246.219 9.58008 246.625 9.95898C247.035 10.334 247.24 10.9375 247.24 11.7695V16H245.863V12.0273C245.863 11.5234 245.76 11.1465 245.553 10.8965C245.346 10.6426 245.025 10.5156 244.592 10.5156C243.963 10.5156 243.525 10.709 243.279 11.0957C243.037 11.4824 242.916 12.043 242.916 12.7773V16H241.539V9.51367H242.611L242.805 10.3926H242.881C243.021 10.166 243.195 9.98047 243.402 9.83594C243.613 9.6875 243.848 9.57617 244.105 9.50195C244.367 9.42773 244.639 9.39062 244.92 9.39062ZM251.348 16.1172C250.574 16.1172 249.953 15.8359 249.484 15.2734C249.02 14.707 248.787 13.873 248.787 12.7715C248.787 11.6582 249.023 10.8164 249.496 10.2461C249.973 9.67578 250.6 9.39062 251.377 9.39062C251.705 9.39062 251.992 9.43555 252.238 9.52539C252.484 9.61133 252.695 9.72852 252.871 9.87695C253.051 10.0254 253.203 10.1914 253.328 10.375H253.393C253.373 10.2539 253.35 10.0801 253.322 9.85352C253.299 9.62305 253.287 9.41016 253.287 9.21484V6.88281H254.67V16H253.592L253.346 15.1152H253.287C253.17 15.3027 253.021 15.4727 252.842 15.625C252.666 15.7734 252.455 15.8926 252.209 15.9824C251.967 16.0723 251.68 16.1172 251.348 16.1172ZM251.734 14.998C252.324 14.998 252.74 14.8281 252.982 14.4883C253.225 14.1484 253.35 13.6387 253.357 12.959V12.7773C253.357 12.0508 253.24 11.4941 253.006 11.1074C252.771 10.7168 252.344 10.5215 251.723 10.5215C251.227 10.5215 250.848 10.7227 250.586 11.125C250.328 11.5234 250.199 12.0801 250.199 12.7949C250.199 13.5098 250.328 14.0566 250.586 14.4355C250.848 14.8105 251.23 14.998 251.734 14.998ZM261.139 6.88281V11.2891C261.139 11.4883 261.131 11.707 261.115 11.9453C261.1 12.1797 261.084 12.4004 261.068 12.6074H261.098C261.199 12.4707 261.32 12.3105 261.461 12.127C261.605 11.9434 261.742 11.7832 261.871 11.6465L263.852 9.51367H265.434L262.838 12.3027L265.604 16H263.986L261.912 13.1523L261.139 13.8145V16H259.762V6.88281H261.139ZM270.021 9.39062C270.752 9.39062 271.32 9.58008 271.727 9.95898C272.137 10.334 272.342 10.9375 272.342 11.7695V16H270.965V12.0273C270.965 11.5234 270.861 11.1465 270.654 10.8965C270.447 10.6426 270.127 10.5156 269.693 10.5156C269.064 10.5156 268.627 10.709 268.381 11.0957C268.139 11.4824 268.018 12.043 268.018 12.7773V16H266.641V9.51367H267.713L267.906 10.3926H267.982C268.123 10.166 268.297 9.98047 268.504 9.83594C268.715 9.6875 268.949 9.57617 269.207 9.50195C269.469 9.42773 269.74 9.39062 270.021 9.39062ZM280.012 12.7422C280.012 13.2812 279.941 13.7598 279.801 14.1777C279.66 14.5957 279.455 14.9492 279.186 15.2383C278.916 15.5234 278.592 15.7422 278.213 15.8945C277.834 16.043 277.406 16.1172 276.93 16.1172C276.484 16.1172 276.076 16.043 275.705 15.8945C275.334 15.7422 275.012 15.5234 274.738 15.2383C274.469 14.9492 274.26 14.5957 274.111 14.1777C273.963 13.7598 273.889 13.2812 273.889 12.7422C273.889 12.0273 274.012 11.4219 274.258 10.9258C274.508 10.4258 274.863 10.0449 275.324 9.7832C275.785 9.52148 276.334 9.39062 276.971 9.39062C277.568 9.39062 278.096 9.52148 278.553 9.7832C279.01 10.0449 279.367 10.4258 279.625 10.9258C279.883 11.4258 280.012 12.0312 280.012 12.7422ZM275.307 12.7422C275.307 13.2148 275.363 13.6191 275.477 13.9551C275.594 14.291 275.773 14.5488 276.016 14.7285C276.258 14.9043 276.57 14.9922 276.953 14.9922C277.336 14.9922 277.648 14.9043 277.891 14.7285C278.133 14.5488 278.311 14.291 278.424 13.9551C278.537 13.6191 278.594 13.2148 278.594 12.7422C278.594 12.2695 278.537 11.8691 278.424 11.541C278.311 11.209 278.133 10.957 277.891 10.7852C277.648 10.6094 277.334 10.5215 276.947 10.5215C276.377 10.5215 275.961 10.7129 275.699 11.0957C275.438 11.4785 275.307 12.0273 275.307 12.7422ZM286.896 15.9941L286.076 12.9766C286.037 12.8281 285.99 12.6484 285.936 12.4375C285.881 12.2266 285.826 12.0098 285.771 11.7871C285.717 11.5605 285.666 11.3516 285.619 11.1602C285.576 10.9688 285.543 10.8203 285.52 10.7148H285.473C285.453 10.8203 285.422 10.9688 285.379 11.1602C285.336 11.3516 285.287 11.5605 285.232 11.7871C285.178 12.0137 285.123 12.2344 285.068 12.4492C285.018 12.6641 284.971 12.8477 284.928 13L284.066 15.9941H282.555L280.738 9.50781H282.133L282.977 12.7305C283.031 12.9492 283.084 13.1855 283.135 13.4395C283.189 13.6934 283.236 13.9355 283.275 14.166C283.314 14.3965 283.344 14.5859 283.363 14.7344H283.41C283.426 14.6289 283.447 14.4961 283.475 14.3359C283.502 14.1719 283.533 14.002 283.568 13.8262C283.604 13.6465 283.639 13.4785 283.674 13.3223C283.709 13.1621 283.742 13.0332 283.773 12.9355L284.77 9.50781H286.275L287.23 12.9355C287.273 13.084 287.32 13.2715 287.371 13.498C287.422 13.7207 287.467 13.9453 287.506 14.1719C287.549 14.3945 287.576 14.5801 287.588 14.7285H287.635C287.65 14.5957 287.678 14.416 287.717 14.1895C287.76 13.959 287.809 13.7148 287.863 13.457C287.918 13.1953 287.975 12.9531 288.033 12.7305L288.895 9.50781H290.266L288.438 15.9941H286.896ZM295.873 6.88281V9.17383C295.873 9.41211 295.865 9.64453 295.85 9.87109C295.838 10.0977 295.824 10.2734 295.809 10.3984H295.885C296.021 10.1719 296.189 9.98633 296.389 9.8418C296.588 9.69336 296.811 9.58203 297.057 9.50781C297.307 9.43359 297.572 9.39648 297.854 9.39648C298.35 9.39648 298.771 9.48047 299.119 9.64844C299.467 9.8125 299.732 10.0684 299.916 10.416C300.104 10.7637 300.197 11.2148 300.197 11.7695V16H298.82V12.0273C298.82 11.5234 298.717 11.1465 298.51 10.8965C298.303 10.6426 297.982 10.5156 297.549 10.5156C297.131 10.5156 296.799 10.6035 296.553 10.7793C296.311 10.9512 296.137 11.207 296.031 11.5469C295.926 11.8828 295.873 12.293 295.873 12.7773V16H294.496V6.88281H295.873ZM307.867 12.7422C307.867 13.2812 307.797 13.7598 307.656 14.1777C307.516 14.5957 307.311 14.9492 307.041 15.2383C306.771 15.5234 306.447 15.7422 306.068 15.8945C305.689 16.043 305.262 16.1172 304.785 16.1172C304.34 16.1172 303.932 16.043 303.561 15.8945C303.189 15.7422 302.867 15.5234 302.594 15.2383C302.324 14.9492 302.115 14.5957 301.967 14.1777C301.818 13.7598 301.744 13.2812 301.744 12.7422C301.744 12.0273 301.867 11.4219 302.113 10.9258C302.363 10.4258 302.719 10.0449 303.18 9.7832C303.641 9.52148 304.189 9.39062 304.826 9.39062C305.424 9.39062 305.951 9.52148 306.408 9.7832C306.865 10.0449 307.223 10.4258 307.48 10.9258C307.738 11.4258 307.867 12.0312 307.867 12.7422ZM303.162 12.7422C303.162 13.2148 303.219 13.6191 303.332 13.9551C303.449 14.291 303.629 14.5488 303.871 14.7285C304.113 14.9043 304.426 14.9922 304.809 14.9922C305.191 14.9922 305.504 14.9043 305.746 14.7285C305.988 14.5488 306.166 14.291 306.279 13.9551C306.393 13.6191 306.449 13.2148 306.449 12.7422C306.449 12.2695 306.393 11.8691 306.279 11.541C306.166 11.209 305.988 10.957 305.746 10.7852C305.504 10.6094 305.189 10.5215 304.803 10.5215C304.232 10.5215 303.816 10.7129 303.555 11.0957C303.293 11.4785 303.162 12.0273 303.162 12.7422ZM314.752 15.9941L313.932 12.9766C313.893 12.8281 313.846 12.6484 313.791 12.4375C313.736 12.2266 313.682 12.0098 313.627 11.7871C313.572 11.5605 313.521 11.3516 313.475 11.1602C313.432 10.9688 313.398 10.8203 313.375 10.7148H313.328C313.309 10.8203 313.277 10.9688 313.234 11.1602C313.191 11.3516 313.143 11.5605 313.088 11.7871C313.033 12.0137 312.979 12.2344 312.924 12.4492C312.873 12.6641 312.826 12.8477 312.783 13L311.922 15.9941H310.41L308.594 9.50781H309.988L310.832 12.7305C310.887 12.9492 310.939 13.1855 310.99 13.4395C311.045 13.6934 311.092 13.9355 311.131 14.166C311.17 14.3965 311.199 14.5859 311.219 14.7344H311.266C311.281 14.6289 311.303 14.4961 311.33 14.3359C311.357 14.1719 311.389 14.002 311.424 13.8262C311.459 13.6465 311.494 13.4785 311.529 13.3223C311.564 13.1621 311.598 13.0332 311.629 12.9355L312.625 9.50781H314.131L315.086 12.9355C315.129 13.084 315.176 13.2715 315.227 13.498C315.277 13.7207 315.322 13.9453 315.361 14.1719C315.404 14.3945 315.432 14.5801 315.443 14.7285H315.49C315.506 14.5957 315.533 14.416 315.572 14.1895C315.615 13.959 315.664 13.7148 315.719 13.457C315.773 13.1953 315.83 12.9531 315.889 12.7305L316.75 9.50781H318.121L316.293 15.9941H314.752ZM324.766 15.0039C324.945 15.0039 325.123 14.9883 325.299 14.957C325.475 14.9219 325.635 14.8809 325.779 14.834V15.877C325.627 15.9434 325.43 16 325.188 16.0469C324.945 16.0938 324.693 16.1172 324.432 16.1172C324.064 16.1172 323.734 16.0566 323.441 15.9355C323.148 15.8105 322.916 15.5977 322.744 15.2969C322.572 14.9961 322.486 14.5801 322.486 14.0488V10.5625H321.602V9.94727L322.551 9.46094L323.002 8.07227H323.869V9.51367H325.727V10.5625H323.869V14.0312C323.869 14.3594 323.951 14.6035 324.115 14.7637C324.279 14.9238 324.496 15.0039 324.766 15.0039ZM332.84 12.7422C332.84 13.2812 332.77 13.7598 332.629 14.1777C332.488 14.5957 332.283 14.9492 332.014 15.2383C331.744 15.5234 331.42 15.7422 331.041 15.8945C330.662 16.043 330.234 16.1172 329.758 16.1172C329.312 16.1172 328.904 16.043 328.533 15.8945C328.162 15.7422 327.84 15.5234 327.566 15.2383C327.297 14.9492 327.088 14.5957 326.939 14.1777C326.791 13.7598 326.717 13.2812 326.717 12.7422C326.717 12.0273 326.84 11.4219 327.086 10.9258C327.336 10.4258 327.691 10.0449 328.152 9.7832C328.613 9.52148 329.162 9.39062 329.799 9.39062C330.396 9.39062 330.924 9.52148 331.381 9.7832C331.838 10.0449 332.195 10.4258 332.453 10.9258C332.711 11.4258 332.84 12.0312 332.84 12.7422ZM328.135 12.7422C328.135 13.2148 328.191 13.6191 328.305 13.9551C328.422 14.291 328.602 14.5488 328.844 14.7285C329.086 14.9043 329.398 14.9922 329.781 14.9922C330.164 14.9922 330.477 14.9043 330.719 14.7285C330.961 14.5488 331.139 14.291 331.252 13.9551C331.365 13.6191 331.422 13.2148 331.422 12.7422C331.422 12.2695 331.365 11.8691 331.252 11.541C331.139 11.209 330.961 10.957 330.719 10.7852C330.477 10.6094 330.162 10.5215 329.775 10.5215C329.205 10.5215 328.789 10.7129 328.527 11.0957C328.266 11.4785 328.135 12.0273 328.135 12.7422ZM338.916 6.88281V9.08008C338.916 9.33398 338.908 9.58398 338.893 9.83008C338.881 10.0723 338.869 10.2617 338.857 10.3984H338.916C339.092 10.1172 339.336 9.88086 339.648 9.68945C339.965 9.49414 340.369 9.39648 340.861 9.39648C341.631 9.39648 342.25 9.67969 342.719 10.2461C343.188 10.8086 343.422 11.6426 343.422 12.748C343.422 13.4824 343.314 14.0996 343.1 14.5996C342.885 15.0996 342.582 15.4785 342.191 15.7363C341.805 15.9902 341.35 16.1172 340.826 16.1172C340.334 16.1172 339.936 16.0273 339.631 15.8477C339.33 15.6641 339.094 15.4512 338.922 15.209H338.822L338.57 16H337.539V6.88281H338.916ZM340.498 10.5156C340.107 10.5156 339.797 10.5938 339.566 10.75C339.34 10.9062 339.176 11.1406 339.074 11.4531C338.973 11.7617 338.92 12.1543 338.916 12.6309V12.7539C338.916 13.4766 339.029 14.0293 339.256 14.4121C339.486 14.7949 339.904 14.9863 340.51 14.9863C340.99 14.9863 341.359 14.793 341.617 14.4062C341.875 14.0156 342.004 13.457 342.004 12.7305C342.004 11.9961 341.875 11.4434 341.617 11.0723C341.363 10.7012 340.99 10.5156 340.498 10.5156ZM348.303 9.39062C348.412 9.39062 348.531 9.39648 348.66 9.4082C348.789 9.41992 348.9 9.43555 348.994 9.45508L348.865 10.7441C348.783 10.7207 348.682 10.7031 348.561 10.6914C348.443 10.6797 348.338 10.6738 348.244 10.6738C347.998 10.6738 347.764 10.7148 347.541 10.7969C347.318 10.875 347.121 10.9961 346.949 11.1602C346.777 11.3203 346.643 11.5215 346.545 11.7637C346.447 12.0059 346.398 12.2871 346.398 12.6074V16H345.016V9.51367H346.094L346.281 10.6562H346.346C346.475 10.4258 346.635 10.2148 346.826 10.0234C347.018 9.83203 347.236 9.67969 347.482 9.56641C347.732 9.44922 348.006 9.39062 348.303 9.39062ZM351.572 9.51367V16H350.195V9.51367H351.572ZM350.893 7.0293C351.104 7.0293 351.285 7.08594 351.438 7.19922C351.594 7.3125 351.672 7.50781 351.672 7.78516C351.672 8.05859 351.594 8.25391 351.438 8.37109C351.285 8.48438 351.104 8.54102 350.893 8.54102C350.674 8.54102 350.488 8.48438 350.336 8.37109C350.188 8.25391 350.113 8.05859 350.113 7.78516C350.113 7.50781 350.188 7.3125 350.336 7.19922C350.488 7.08594 350.674 7.0293 350.893 7.0293ZM356.928 9.39062C357.658 9.39062 358.227 9.58008 358.633 9.95898C359.043 10.334 359.248 10.9375 359.248 11.7695V16H357.871V12.0273C357.871 11.5234 357.768 11.1465 357.561 10.8965C357.354 10.6426 357.033 10.5156 356.6 10.5156C355.971 10.5156 355.533 10.709 355.287 11.0957C355.045 11.4824 354.924 12.043 354.924 12.7773V16H353.547V9.51367H354.619L354.812 10.3926H354.889C355.029 10.166 355.203 9.98047 355.41 9.83594C355.621 9.6875 355.855 9.57617 356.113 9.50195C356.375 9.42773 356.646 9.39062 356.928 9.39062ZM363.027 18.8828C362.148 18.8828 361.475 18.7246 361.006 18.4082C360.537 18.0918 360.303 17.6484 360.303 17.0781C360.303 16.6797 360.428 16.3418 360.678 16.0645C360.928 15.791 361.285 15.6016 361.75 15.4961C361.574 15.418 361.422 15.2969 361.293 15.1328C361.168 14.9648 361.105 14.7793 361.105 14.5762C361.105 14.334 361.174 14.127 361.311 13.9551C361.447 13.7832 361.652 13.6172 361.926 13.457C361.586 13.3125 361.312 13.0781 361.105 12.7539C360.902 12.4258 360.801 12.041 360.801 11.5996C360.801 11.1309 360.9 10.7324 361.1 10.4043C361.299 10.0723 361.59 9.82031 361.973 9.64844C362.355 9.47266 362.818 9.38477 363.361 9.38477C363.479 9.38477 363.605 9.39258 363.742 9.4082C363.883 9.41992 364.012 9.43555 364.129 9.45508C364.25 9.4707 364.342 9.48828 364.404 9.50781H366.648V10.2754L365.547 10.4805C365.652 10.6289 365.736 10.7988 365.799 10.9902C365.861 11.1777 365.893 11.3828 365.893 11.6055C365.893 12.2773 365.66 12.8066 365.195 13.1934C364.734 13.5762 364.098 13.7676 363.285 13.7676C363.09 13.7598 362.9 13.7441 362.717 13.7207C362.576 13.8066 362.469 13.9023 362.395 14.0078C362.32 14.1094 362.283 14.2246 362.283 14.3535C362.283 14.459 362.32 14.5449 362.395 14.6113C362.469 14.6738 362.578 14.7207 362.723 14.752C362.871 14.7832 363.051 14.7988 363.262 14.7988H364.381C365.092 14.7988 365.635 14.9492 366.01 15.25C366.385 15.5508 366.572 15.9922 366.572 16.5742C366.572 17.3125 366.268 17.8809 365.658 18.2793C365.049 18.6816 364.172 18.8828 363.027 18.8828ZM363.08 17.916C363.561 17.916 363.965 17.8691 364.293 17.7754C364.621 17.6816 364.869 17.5469 365.037 17.3711C365.205 17.1992 365.289 16.9941 365.289 16.7559C365.289 16.5449 365.236 16.3828 365.131 16.2695C365.025 16.1562 364.867 16.0781 364.656 16.0352C364.445 15.9922 364.184 15.9707 363.871 15.9707H362.852C362.598 15.9707 362.373 16.0098 362.178 16.0879C361.982 16.1699 361.83 16.2871 361.721 16.4395C361.615 16.5918 361.562 16.7754 361.562 16.9902C361.562 17.2871 361.693 17.5156 361.955 17.6758C362.221 17.8359 362.596 17.916 363.08 17.916ZM363.35 12.8652C363.752 12.8652 364.051 12.7559 364.246 12.5371C364.441 12.3145 364.539 12.002 364.539 11.5996C364.539 11.1621 364.438 10.834 364.234 10.6152C364.035 10.3965 363.738 10.2871 363.344 10.2871C362.957 10.2871 362.662 10.3984 362.459 10.6211C362.26 10.8438 362.16 11.1738 362.16 11.6113C362.16 12.0059 362.26 12.3145 362.459 12.5371C362.662 12.7559 362.959 12.8652 363.35 12.8652Z" fill="#1B2638"/>
</svg>
