<svg width="16" height="16" viewBox="0 0 16 16" fill="none" xmlns="http://www.w3.org/2000/svg">
<path d="M15.7715 5.4668L15.9043 4.66992C15.9707 4.4043 15.7715 4.17188 15.5059 4.17188H12.5508L13.1816 0.685547C13.248 0.419922 13.0488 0.1875 12.8164 0.1875H11.9863C11.8203 0.1875 11.6211 0.353516 11.5879 0.519531L10.957 4.17188H7.23828L7.86914 0.685547C7.93555 0.419922 7.73633 0.1875 7.50391 0.1875H6.67383C6.50781 0.1875 6.30859 0.353516 6.27539 0.519531L5.64453 4.17188H2.52344C2.35742 4.17188 2.19141 4.33789 2.1582 4.50391L1.99219 5.30078C1.95898 5.56641 2.1582 5.76562 2.39062 5.76562H5.3457L4.68164 9.48438H1.59375C1.39453 9.48438 1.22852 9.65039 1.19531 9.81641L1.0625 10.6133C0.996094 10.8789 1.19531 11.0781 1.46094 11.0781H4.41602L3.78516 14.5977C3.71875 14.8633 3.91797 15.0625 4.15039 15.0625H4.98047C5.14648 15.0625 5.3457 14.9297 5.37891 14.7637L6.00977 11.0781H9.72852L9.09766 14.5977C9.03125 14.8633 9.23047 15.0625 9.46289 15.0625H10.293C10.459 15.0625 10.6582 14.9297 10.6914 14.7637L11.3223 11.0781H14.4434C14.6094 11.0781 14.7754 10.9453 14.8086 10.7793L14.9746 9.98242C15.0078 9.7168 14.8086 9.48438 14.5762 9.48438H11.6211L12.2852 5.76562H15.373C15.5723 5.76562 15.7383 5.63281 15.7715 5.4668ZM9.99414 9.48438H6.30859L6.97266 5.76562H10.6582L9.99414 9.48438Z" fill="white"/>
</svg>
