<svg width="40" height="40" viewBox="0 0 40 40" fill="none" xmlns="http://www.w3.org/2000/svg">
<circle cx="20" cy="20" r="19.5" fill="white" stroke="#EBEBEB"/>
<path d="M24.5781 14.6641C24.5781 14.6641 24.5781 14.6641 24.5508 14.6641C23.5391 14.1992 22.418 13.8438 21.2969 13.6523C21.2695 13.6523 21.2695 13.625 21.2695 13.625L21.2422 13.6523C21.0781 13.9258 20.9414 14.2266 20.832 14.5C20.2305 14.418 19.6016 14.3633 18.9727 14.3633C18.3438 14.3633 17.7422 14.418 17.1406 14.5C17.0312 14.2266 16.8945 13.9258 16.7305 13.6523H16.7031C16.6758 13.6523 16.6758 13.6523 16.6758 13.6523C15.5547 13.8438 14.4336 14.1992 13.4219 14.6641C13.3945 14.6641 13.3945 14.6641 13.3945 14.6641C11.3164 17.7812 10.7422 20.8164 11.0156 23.8242C11.0156 23.8242 11.0156 23.8516 11.043 23.8516C12.2188 24.7539 13.5859 25.4375 15.0625 25.875C15.0898 25.875 15.0898 25.875 15.1172 25.875C15.418 25.4375 15.6914 25 15.9375 24.5352V24.5078C15.9375 24.4805 15.9102 24.4805 15.9102 24.4531C15.4727 24.2891 15.0352 24.0977 14.6523 23.8516C14.625 23.8516 14.625 23.8516 14.625 23.8242C14.625 23.7969 14.625 23.7969 14.6523 23.7695C14.7344 23.7148 14.8164 23.6602 14.8984 23.5781C14.8984 23.5781 14.8984 23.5781 14.9258 23.5781C14.9258 23.5781 14.9258 23.5781 14.9531 23.5781C17.5781 24.7812 20.4219 24.7812 23.0195 23.5781H23.0469H23.0742C23.1562 23.6602 23.2383 23.7148 23.3203 23.7695C23.3477 23.7969 23.3477 23.7969 23.3477 23.8242C23.3477 23.8516 23.3477 23.8516 23.3203 23.8516C22.9102 24.0977 22.5 24.2891 22.0625 24.4531C22.0352 24.4805 22.0352 24.4805 22.0352 24.5078V24.5352C22.2812 25 22.5547 25.4375 22.8555 25.875C22.8555 25.875 22.8828 25.875 22.9102 25.875C24.3594 25.4375 25.7266 24.7539 26.9297 23.8516C26.957 23.8516 26.957 23.8242 26.957 23.8242C27.2852 20.3516 26.3828 17.3438 24.5781 14.6641ZM16.3203 21.9922C15.5273 21.9922 14.8711 21.2539 14.8711 20.3789C14.8711 19.4766 15.5273 18.7656 16.3203 18.7656C17.1406 18.7656 17.7695 19.4766 17.7695 20.3789C17.7695 21.2539 17.1133 21.9922 16.3203 21.9922ZM21.6523 21.9922C20.8594 21.9922 20.2305 21.2539 20.2305 20.3789C20.2305 19.4766 20.8594 18.7656 21.6523 18.7656C22.4727 18.7656 23.1289 19.4766 23.1016 20.3789C23.1016 21.2539 22.4727 21.9922 21.6523 21.9922Z" fill="#3D876A"/>
</svg>
