<svg width="40" height="40" viewBox="0 0 40 40" fill="none" xmlns="http://www.w3.org/2000/svg">
<circle cx="20" cy="20" r="19.5" fill="white" stroke="#EBEBEB"/>
<path d="M16.1094 25V16.8242H13.5664V25H16.1094ZM14.8242 15.7305C15.6445 15.7305 16.3008 15.0469 16.3008 14.2266C16.3008 13.4336 15.6445 12.7773 14.8242 12.7773C14.0312 12.7773 13.375 13.4336 13.375 14.2266C13.375 15.0469 14.0312 15.7305 14.8242 15.7305ZM25.5977 25H25.625V20.5156C25.625 18.3281 25.1328 16.6328 22.5625 16.6328C21.332 16.6328 20.5117 17.3164 20.1562 17.9453H20.1289V16.8242H17.6953V25H20.2383V20.9531C20.2383 19.8867 20.4297 18.875 21.7422 18.875C23.0547 18.875 23.082 20.0781 23.082 21.0352V25H25.5977Z" fill="#3D876A"/>
</svg>
