<svg width="20" height="20" viewBox="0 0 20 20" fill="none" xmlns="http://www.w3.org/2000/svg">
<circle cx="10" cy="10" r="9.5" fill="white" stroke="#EBEBEB"/>
<path d="M8.07812 14V8.16016H6.26172V14H8.07812ZM7.16016 7.37891C7.74609 7.37891 8.21484 6.89062 8.21484 6.30469C8.21484 5.73828 7.74609 5.26953 7.16016 5.26953C6.59375 5.26953 6.125 5.73828 6.125 6.30469C6.125 6.89062 6.59375 7.37891 7.16016 7.37891ZM14.8555 14H14.875V10.7969C14.875 9.23438 14.5234 8.02344 12.6875 8.02344C11.8086 8.02344 11.2227 8.51172 10.9688 8.96094H10.9492V8.16016H9.21094V14H11.0273V11.1094C11.0273 10.3477 11.1641 9.625 12.1016 9.625C13.0391 9.625 13.0586 10.4844 13.0586 11.168V14H14.8555Z" fill="#3D876A"/>
</svg>
