<svg width="20" height="20" viewBox="0 0 20 20" fill="none" xmlns="http://www.w3.org/2000/svg">
<circle cx="10" cy="10" r="9.5" fill="white" stroke="#EBEBEB"/>
<path d="M14.4844 6.61719C14.4844 6.61719 14.4844 6.61719 14.4648 6.61719C13.7422 6.28516 12.9414 6.03125 12.1406 5.89453C12.1211 5.89453 12.1211 5.875 12.1211 5.875L12.1016 5.89453C11.9844 6.08984 11.8867 6.30469 11.8086 6.5C11.3789 6.44141 10.9297 6.40234 10.4805 6.40234C10.0312 6.40234 9.60156 6.44141 9.17188 6.5C9.09375 6.30469 8.99609 6.08984 8.87891 5.89453H8.85938C8.83984 5.89453 8.83984 5.89453 8.83984 5.89453C8.03906 6.03125 7.23828 6.28516 6.51562 6.61719C6.49609 6.61719 6.49609 6.61719 6.49609 6.61719C5.01172 8.84375 4.60156 11.0117 4.79688 13.1602C4.79688 13.1602 4.79688 13.1797 4.81641 13.1797C5.65625 13.8242 6.63281 14.3125 7.6875 14.625C7.70703 14.625 7.70703 14.625 7.72656 14.625C7.94141 14.3125 8.13672 14 8.3125 13.668V13.6484C8.3125 13.6289 8.29297 13.6289 8.29297 13.6094C7.98047 13.4922 7.66797 13.3555 7.39453 13.1797C7.375 13.1797 7.375 13.1797 7.375 13.1602C7.375 13.1406 7.375 13.1406 7.39453 13.1211C7.45312 13.082 7.51172 13.043 7.57031 12.9844C7.57031 12.9844 7.57031 12.9844 7.58984 12.9844C7.58984 12.9844 7.58984 12.9844 7.60938 12.9844C9.48438 13.8438 11.5156 13.8438 13.3711 12.9844H13.3906H13.4102C13.4688 13.043 13.5273 13.082 13.5859 13.1211C13.6055 13.1406 13.6055 13.1406 13.6055 13.1602C13.6055 13.1797 13.6055 13.1797 13.5859 13.1797C13.293 13.3555 13 13.4922 12.6875 13.6094C12.668 13.6289 12.668 13.6289 12.668 13.6484V13.668C12.8438 14 13.0391 14.3125 13.2539 14.625C13.2539 14.625 13.2734 14.625 13.293 14.625C14.3281 14.3125 15.3047 13.8242 16.1641 13.1797C16.1836 13.1797 16.1836 13.1602 16.1836 13.1602C16.418 10.6797 15.7734 8.53125 14.4844 6.61719ZM8.58594 11.8516C8.01953 11.8516 7.55078 11.3242 7.55078 10.6992C7.55078 10.0547 8.01953 9.54688 8.58594 9.54688C9.17188 9.54688 9.62109 10.0547 9.62109 10.6992C9.62109 11.3242 9.15234 11.8516 8.58594 11.8516ZM12.3945 11.8516C11.8281 11.8516 11.3789 11.3242 11.3789 10.6992C11.3789 10.0547 11.8281 9.54688 12.3945 9.54688C12.9805 9.54688 13.4492 10.0547 13.4297 10.6992C13.4297 11.3242 12.9805 11.8516 12.3945 11.8516Z" fill="#3D876A"/>
</svg>
