<svg width="18" height="18" viewBox="0 0 18 18" fill="none" xmlns="http://www.w3.org/2000/svg">
<path d="M16.7344 15.7637L12.2852 11.3145C13.248 10.1523 13.7793 8.6582 13.7793 7.03125C13.7793 3.24609 10.6582 0.125 6.87305 0.125C3.05469 0.125 0 3.24609 0 7.03125C0 10.8496 3.08789 13.9375 6.87305 13.9375C8.4668 13.9375 9.96094 13.4062 11.1562 12.4434L15.6055 16.8926C15.7715 17.0586 15.9707 17.125 16.2031 17.125C16.4023 17.125 16.6016 17.0586 16.7344 16.8926C17.0664 16.5938 17.0664 16.0957 16.7344 15.7637ZM1.59375 7.03125C1.59375 4.10938 3.95117 1.71875 6.90625 1.71875C9.82812 1.71875 12.2188 4.10938 12.2188 7.03125C12.2188 9.98633 9.82812 12.3438 6.90625 12.3438C3.95117 12.3438 1.59375 9.98633 1.59375 7.03125Z" fill="#3D876A"/>
</svg>
