<svg width="292" height="200" viewBox="0 0 292 200" fill="none" xmlns="http://www.w3.org/2000/svg">
<g filter="url(#filter0_d_120_456)">
<rect x="54" y="13.8216" width="184" height="83.7934" rx="5" fill="white"/>
</g>
<rect x="83.3711" y="55.2864" width="117.484" height="7.77465" rx="3.88732" fill="#EEEEEE"/>
<rect x="83.3711" y="72.5634" width="57.8779" height="7.77465" rx="3.88732" fill="#EEEEEE"/>
<circle cx="103.239" cy="19.8685" r="19.8685" fill="#3D876A"/>
<path d="M100.703 22.1237C100.938 22.3581 101.336 22.3581 101.57 22.1237L108.461 15.2331C108.695 14.9987 108.695 14.6003 108.461 14.3659L107.617 13.5222C107.383 13.2878 107.008 13.2878 106.773 13.5222L101.148 19.1472L98.5 16.5222C98.2656 16.2878 97.8906 16.2878 97.6562 16.5222L96.8125 17.3659C96.5781 17.6003 96.5781 17.9987 96.8125 18.2331L100.703 22.1237Z" fill="white"/>
<defs>
<filter id="filter0_d_120_456" x="0" y="7.82159" width="292" height="191.793" filterUnits="userSpaceOnUse" color-interpolation-filters="sRGB">
<feFlood flood-opacity="0" result="BackgroundImageFix"/>
<feColorMatrix in="SourceAlpha" type="matrix" values="0 0 0 0 0 0 0 0 0 0 0 0 0 0 0 0 0 0 127 0" result="hardAlpha"/>
<feOffset dy="48"/>
<feGaussianBlur stdDeviation="27"/>
<feComposite in2="hardAlpha" operator="out"/>
<feColorMatrix type="matrix" values="0 0 0 0 0.676771 0 0 0 0 0.729985 0 0 0 0 0.741667 0 0 0 0.2 0"/>
<feBlend mode="normal" in2="BackgroundImageFix" result="effect1_dropShadow_120_456"/>
<feBlend mode="normal" in="SourceGraphic" in2="effect1_dropShadow_120_456" result="shape"/>
</filter>
</defs>
</svg>
