<svg width="40" height="40" viewBox="0 0 40 40" fill="none" xmlns="http://www.w3.org/2000/svg">
<circle cx="20" cy="20" r="19.5" fill="white" stroke="#EBEBEB"/>
<path d="M25.5508 16.9062C26.0977 16.4961 26.5898 16.0039 26.9727 15.4297C26.4805 15.6484 25.9062 15.8125 25.332 15.8672C25.9336 15.5117 26.3711 14.9648 26.5898 14.2812C26.043 14.6094 25.4141 14.8555 24.7852 14.9922C24.2383 14.418 23.5 14.0898 22.6797 14.0898C21.0938 14.0898 19.8086 15.375 19.8086 16.9609C19.8086 17.1797 19.8359 17.3984 19.8906 17.6172C17.5117 17.4805 15.3789 16.332 13.957 14.6094C13.7109 15.0195 13.5742 15.5117 13.5742 16.0586C13.5742 17.043 14.0664 17.918 14.8594 18.4375C14.3945 18.4102 13.9297 18.3008 13.5469 18.082V18.1094C13.5469 19.5039 14.5312 20.6523 15.8438 20.9258C15.625 20.9805 15.3516 21.0352 15.1055 21.0352C14.9141 21.0352 14.75 21.0078 14.5586 20.9805C14.9141 22.1289 15.9805 22.9492 17.2383 22.9766C16.2539 23.7422 15.0234 24.207 13.6836 24.207C13.4375 24.207 13.2188 24.1797 13 24.1523C14.2578 24.9727 15.7617 25.4375 17.4023 25.4375C22.6797 25.4375 25.5508 21.0898 25.5508 17.2891C25.5508 17.1523 25.5508 17.043 25.5508 16.9062Z" fill="#3D876A"/>
</svg>
