<svg width="20" height="20" viewBox="0 0 20 20" fill="none" xmlns="http://www.w3.org/2000/svg">
<circle cx="10" cy="10" r="9.5" fill="white" stroke="#EBEBEB"/>
<path d="M13.9648 8.21875C14.3555 7.92578 14.707 7.57422 14.9805 7.16406C14.6289 7.32031 14.2188 7.4375 13.8086 7.47656C14.2383 7.22266 14.5508 6.83203 14.707 6.34375C14.3164 6.57812 13.8672 6.75391 13.418 6.85156C13.0273 6.44141 12.5 6.20703 11.9141 6.20703C10.7812 6.20703 9.86328 7.125 9.86328 8.25781C9.86328 8.41406 9.88281 8.57031 9.92188 8.72656C8.22266 8.62891 6.69922 7.80859 5.68359 6.57812C5.50781 6.87109 5.41016 7.22266 5.41016 7.61328C5.41016 8.31641 5.76172 8.94141 6.32812 9.3125C5.99609 9.29297 5.66406 9.21484 5.39062 9.05859V9.07812C5.39062 10.0742 6.09375 10.8945 7.03125 11.0898C6.875 11.1289 6.67969 11.168 6.50391 11.168C6.36719 11.168 6.25 11.1484 6.11328 11.1289C6.36719 11.9492 7.12891 12.5352 8.02734 12.5547C7.32422 13.1016 6.44531 13.4336 5.48828 13.4336C5.3125 13.4336 5.15625 13.4141 5 13.3945C5.89844 13.9805 6.97266 14.3125 8.14453 14.3125C11.9141 14.3125 13.9648 11.207 13.9648 8.49219C13.9648 8.39453 13.9648 8.31641 13.9648 8.21875Z" fill="#3D876A"/>
</svg>
